<?xml version="1.0" standalone="no"?>
<!DOCTYPE svg PUBLIC "-//W3C//DTD SVG 20010904//EN"
 "http://www.w3.org/TR/2001/REC-SVG-20010904/DTD/svg10.dtd">
<svg version="1.0" xmlns="http://www.w3.org/2000/svg"
 width="518.000000pt" height="518.000000pt" viewBox="0 0 518.000000 518.000000"
 preserveAspectRatio="xMidYMid meet">
<metadata>
Created by potrace 1.14, written by Peter Selinger 2001-2017
</metadata>
<g transform="translate(0.000000,518.000000) scale(0.100000,-0.100000)"
fill="#000000" stroke="none">
<path d="M3917 5144 c-1 -1 -96 -5 -212 -9 -115 -4 -232 -8 -260 -10 -80 -4
-277 -17 -315 -20 -19 -2 -75 -6 -124 -10 -49 -4 -97 -8 -106 -10 -9 -2 -53
-6 -96 -10 -80 -7 -90 -8 -179 -20 -249 -32 -523 -80 -694 -121 -58 -14 -113
-27 -121 -29 -157 -34 -466 -145 -640 -230 -410 -202 -706 -529 -904 -1002
-63 -151 -149 -451 -180 -628 -3 -16 -8 -41 -11 -55 -3 -14 -7 -41 -10 -60 -2
-19 -7 -51 -10 -70 -3 -19 -8 -57 -11 -85 -3 -27 -7 -61 -8 -75 -2 -14 -7 -59
-10 -100 -4 -41 -10 -95 -12 -120 -3 -25 -7 -587 -9 -1249 l-3 -1204 656 7
c362 3 684 8 717 10 33 2 112 7 175 11 164 10 196 12 280 19 97 9 327 35 359
41 9 1 41 6 71 9 30 4 78 11 105 16 28 5 64 11 80 14 28 4 116 19 175 31 14 3
41 8 60 11 19 3 49 10 65 14 17 5 41 11 55 14 136 23 515 138 665 201 124 52
175 75 280 128 238 120 419 249 595 426 177 177 306 356 424 585 79 155 123
258 177 420 38 113 101 344 112 411 5 27 20 102 32 165 3 14 7 43 10 65 3 22
7 51 10 65 3 14 7 45 10 70 3 25 7 61 10 80 4 35 15 143 20 210 13 161 18 487
17 1220 0 470 -1 860 -1 866 -1 7 -188 10 -622 10 -341 -1 -621 -2 -622 -2z"/>
</g>
</svg>
