<svg version="1.2" xmlns="http://www.w3.org/2000/svg" viewBox="0 0 1343 306" width="1343" height="306"><defs><linearGradient id="P" gradientUnits="userSpaceOnUse"/><radialGradient id="g1" cx="1203.1" cy="138.1" r="138.4" href="#P"><stop stop-color="#38b449"/><stop offset="1" stop-color="#239544"/></radialGradient><radialGradient id="g2" cx="83.3" cy="100" r="87.3" href="#P"><stop stop-color="#38b449"/><stop offset="1" stop-color="#239544"/></radialGradient><radialGradient id="g3" cx="255.3" cy="100" r="88.7" href="#P"><stop stop-color="#38b449"/><stop offset="1" stop-color="#239544"/></radialGradient><radialGradient id="g4" cx="419.8" cy="100" r="88.7" href="#P"><stop stop-color="#38b449"/><stop offset="1" stop-color="#239544"/></radialGradient><radialGradient id="g5" cx="585.8" cy="100" r="87.3" href="#P"><stop stop-color="#38b449"/><stop offset="1" stop-color="#239544"/></radialGradient><radialGradient id="g6" cx="757.8" cy="100" r="88.7" href="#P"><stop stop-color="#38b449"/><stop offset="1" stop-color="#239544"/></radialGradient><radialGradient id="g7" cx="935" cy="100" r="94.4" href="#P"><stop stop-color="#38b449"/><stop offset="1" stop-color="#239544"/></radialGradient></defs><style>.a{fill:url(#g1)}.b{fill:url(#g2)}.c{fill:url(#g3)}.d{fill:url(#g4)}.e{fill:url(#g5)}.f{fill:url(#g6)}.g{fill:url(#g7)}.h{fill:#3c3a3c}.i{fill:#38b449}</style><path class="a" d="m1064.1 167.4q0-100.4 50.9-134.9 48.1-32.3 181.2-32.3h45.9v85.9q0 102.6-52.2 146.2-53.2 43.6-183.1 43.6h-42.7z"/><path class="b" d="m27.8 0.2c12.1 0 22 9.8 22 22v26.3c0 13.9 17 20.6 26.5 10.4l48.8-52.6c3.6-3.9 8.7-6.1 14-6.1 16.8 0 25.4 20.2 13.7 32.3l-39.1 40.8c-6.5 6.7-7.1 17.1-1.6 24.5l50.5 68.3c10.3 14 0.3 33.7-17.1 33.7-6.7 0-13.1-3.2-17.1-8.7l-40.5-55.6c-7.8-10.8-23.5-11.9-32.8-2.2-3.4 3.5-5.3 8.3-5.3 13.2v31.4c0 12.1-9.9 22-22 22-12.1 0-22-9.9-22-22v-155.7c0-12.2 9.9-22 22-22z"/><path class="c" d="m211 0.2h99.3c10.8 0 19.5 8.8 19.5 19.5 0 10.8-8.7 19.6-19.5 19.6h-67.9c-10.8 0-19.5 8.7-19.5 19.5v1.4c0 10.8 8.8 19.6 19.5 19.6h55.1c10.8 0 19.5 8.7 19.5 19.5 0 10.8-8.7 19.5-19.5 19.5h-55.1c-10.8 0-19.5 8.8-19.5 19.6v2.8c0 10.8 8.8 19.6 19.5 19.6h69.3c10.8 0 19.6 8.7 19.6 19.5 0 10.8-8.8 19.5-19.6 19.5h-100.7c-17.5 0-31.7-14.2-31.7-31.8v-136c0-17.6 14.2-31.8 31.7-31.8z"/><path class="d" d="m363.8 0.2h112.1c11 0 19.9 9 19.9 20 0 11-8.9 19.9-19.9 19.9h-68.2c-11 0-20 9-20 20v2.6c0 11 9 19.9 20 19.9h55.3c11 0 20 9 20 20 0 11-9 19.9-20 19.9h-55.3c-11 0-20 9-20 20v35.4c0 12.1-9.8 21.9-21.9 21.9-12.2 0-22-9.8-22-21.9v-157.7c0-11 8.9-20 20-20z"/><path class="e" d="m530.3 0.2c12.2 0 22 9.8 22 22v26.3c0 13.9 17 20.6 26.5 10.4l48.8-52.6c3.6-3.9 8.7-6.1 14-6.1 16.8 0 25.4 20.2 13.8 32.3l-39.2 40.8c-6.4 6.7-7.1 17.1-1.6 24.5l50.5 68.3c10.3 14 0.3 33.7-17.1 33.7-6.7 0-13.1-3.2-17.1-8.7l-40.5-55.6c-7.8-10.8-23.5-11.9-32.8-2.2-3.4 3.5-5.3 8.3-5.3 13.2v31.4c0 12.1-9.9 22-22 22-12.1 0-21.9-9.9-21.9-22v-155.7c0-12.2 9.8-22 21.9-22z"/><path class="f" d="m713.5 0.2h99.3c10.8 0 19.6 8.8 19.6 19.5 0 10.8-8.8 19.6-19.6 19.6h-67.9c-10.7 0-19.5 8.7-19.5 19.5v1.4c0 10.8 8.8 19.6 19.5 19.6h55.1c10.8 0 19.5 8.7 19.5 19.5 0 10.8-8.7 19.5-19.5 19.5h-55.1c-10.7 0-19.5 8.8-19.5 19.6v2.8c0 10.8 8.8 19.6 19.5 19.6h69.4c10.7 0 19.5 8.7 19.5 19.5 0 10.8-8.8 19.5-19.5 19.5h-100.7c-17.6 0-31.8-14.2-31.8-31.8v-136c0-17.6 14.2-31.8 31.7-31.8z"/><path class="g" d="m873.4 0.2c8.5 0 16.4 4 21.6 10.7l46.5 61.1c12.5 16.5 38.9 7.6 38.9-13.1v-37c0-12 9.7-21.7 21.7-21.7 11.9 0 21.6 9.7 21.6 21.7v153c0 13.8-11.1 25-25 25-7.8 0-15.1-3.7-19.8-9.9l-50.3-66c-12.6-16.5-38.9-7.6-38.9 13.2v41c0 11.9-9.7 21.7-21.7 21.7-12 0-21.7-9.8-21.7-21.7v-150.9c0-15 12.2-27.1 27.1-27.1z"/><path fill-rule="evenodd" class="h" d="m50.4 272.5h-27.8l-4.5 11.3h-17.2l27.6-64.2h17.2l27 64.2h-17.9zm-4.9-12.8l-8.8-22.9-9 22.9z"/><path class="h" d="m95.3 219.6v26.2h25.9v-26.2h16.8v64.2h-16.8v-24.6h-25.9v24.6h-16.8v-64.2z"/><path class="h" d="m181 284l-2.3 4.5c3.8 1 6.3 3.8 6.3 7.4 0 5.9-4.8 9.7-11.6 9.7-2.9 0-6.2-1.1-8.8-2.9l3-6.8c1.2 1.1 2.9 1.8 4.4 1.8 2.3 0 3.8-1.5 3.8-3.3 0-1.9-1.5-3.3-4.1-3.3-1 0-2.2 0.2-3.3 0.4l3.4-7.3c-9.6-0.7-19.2-4.4-26.1-10.1l6.5-13.1c6.6 5.7 16.6 9.7 23.3 9.7 5 0 8.1-1.8 8.1-5.2 0-10.9-33.9-4.3-33.9-27.1 0-12 10.2-19.6 25.7-19.6 9.5 0 19 3 25.7 7.3l-6.3 13.3c-6.8-3.9-15.4-6.9-20.8-6.9-4 0-6.6 1.4-6.6 4.4 0 10.6 33.8 4.6 33.8 27.7 0 11.3-8.6 17.9-20.2 19.4z"/><path fill-rule="evenodd" class="h" d="m252.3 272.5h-27.8l-4.5 11.3h-17.2l27.6-64.2h17.2l27 64.2h-17.9zm-5-12.8l-8.8-22.9-9 22.9z"/><path fill-rule="evenodd" class="h" d="m334.4 242.1c0 15.1-9.4 23.9-25.8 23.9h-11.5v17.8h-16.8v-64.2h28.3c16.4 0 25.8 8.2 25.8 22.5zm-15.9 0.6c0-6.4-4-9.8-10.7-9.8h-10.7v19.8h10.7c6.7 0 10.7-3.5 10.7-10z"/><path fill-rule="evenodd" class="h" d="m431.9 251.7c0 18.6-14 32.1-33.4 32.1h-26.1v-64.2h26.3c19.3 0 33.2 13.5 33.2 32.1zm-10.9 0.1c0-13.1-9.8-22.4-22.5-22.4h-15.3v44.7h15.8c12.5 0 22-9.2 22-22.3z"/><path class="h" d="m489.3 219.6v9.8h-35v17.4h31.4v9.6h-31.4v17.7h36.1v9.7h-46.9v-64.2z"/><path class="h" d="m546.5 283.8l-21.1-28.3-10.9 12v16.3h-10.9v-64.2h10.9v33.2l30.6-33.2h12.7l-24.8 27.5 26.5 36.7z"/><path fill-rule="evenodd" class="h" d="m630.1 251.7c0 18.4-14.9 32.6-34 32.6-19.2 0-34-14.2-34-32.6 0-18.4 14.8-32.3 34-32.3 19.1 0 34 14 34 32.3zm-57 0c0 12.8 10.5 22.9 23.1 22.9 12.5 0 22.8-10.1 22.8-22.9 0-12.7-10.3-22.6-22.8-22.6-12.7 0-23.1 9.9-23.1 22.6z"/><path fill-rule="evenodd" class="h" d="m682.4 283.8l-11.8-19.4c-0.9 0.1-1.9 0.1-2.9 0.1h-15.2v19.3h-10.8v-64.2h26c16.4 0 25.9 8 25.9 22 0 10.2-4.8 17.5-13.3 20.8l14.4 21.4zm-14.7-29c9.9 0 15.6-4.3 15.6-13 0-8.4-5.7-12.4-15.6-12.4h-15.2v25.4z"/><path fill-rule="evenodd" class="h" d="m749.4 269.3h-32.4l-6.1 14.5h-11.3l28.4-64.2h11.1l28 64.2h-11.5zm-4.2-9.6l-12.1-28.5-12.1 28.5z"/><path class="h" d="m795.4 229.4c-6.4 0-10.5 2.3-10.5 6.7 0 14 34.7 6.5 34.6 29.6 0 11.4-10.1 18.5-24.2 18.5-10.1 0-19.7-4.1-26.3-10.2l4.7-9.3c6.6 6 14.9 9.3 21.8 9.3 7.5 0 12-2.8 12-7.8 0-14.3-34.7-6.3-34.7-29.1 0-11 9.4-17.9 23.4-17.9 8.3 0 16.5 2.6 22.5 6.6l-4.5 9.5c-7-4.2-14-5.9-18.8-5.9z"/><path class="h" d="m858.5 262.5v21.3h-10.8v-21l-23.9-43.2h10.9l18.3 31.3 18-31.3h11z"/><path fill-rule="evenodd" class="h" d="m952.9 251.7c0 18.4-14.8 32.6-34 32.6-19.2 0-34-14.2-34-32.6 0-18.4 14.8-32.3 34-32.3 19.2 0 34 14 34 32.3zm-57 0c0 12.8 10.5 22.9 23.1 22.9 12.5 0 22.8-10.1 22.8-22.9 0-12.7-10.3-22.6-22.8-22.6-12.7 0-23.1 9.9-23.1 22.6z"/><path class="h" d="m975.1 219.6l34.4 46.2v-46.2h10.6v64.2h-10.6l-34.2-46v46h-10.8v-64.2z"/><path class="i" d="m1312.4 28.1c0 0-188.6 208.6-200.9 215.8-12.3 7.3 163.2-193.9 187.1-209.3 23.8-15.4 13.8-6.5 13.8-6.5z"/></svg>