<svg version="1.2" xmlns="http://www.w3.org/2000/svg" viewBox="0 0 162 200" width="162" height="200"><defs><linearGradient id="P" gradientUnits="userSpaceOnUse"/><radialGradient id="g1" cx="78.3" cy="100" r="87.3" href="#P"><stop stop-color="#38b449"/><stop offset="1" stop-color="#239544"/></radialGradient></defs><style>.a{fill:url(#g1)}</style><path class="a" d="m22.8 0.2c12.1 0 22 9.8 22 22v26.3c0 13.9 17 20.6 26.5 10.4l48.8-52.6c3.6-3.9 8.7-6.1 14-6.1 16.8 0 25.4 20.2 13.7 32.3l-39.1 40.8c-6.5 6.7-7.1 17.1-1.6 24.5l50.5 68.3c10.3 14 0.3 33.7-17.1 33.7-6.7 0-13.1-3.2-17.1-8.7l-40.5-55.6c-7.8-10.8-23.5-11.9-32.8-2.2-3.4 3.5-5.3 8.3-5.3 13.2v31.4c0 12.1-9.9 22-22 22-12.1 0-22-9.9-22-22v-155.7c0-12.2 9.9-22 22-22z"/></svg>